<svg width="227" height="54" viewBox="0 0 227 54" fill="none" xmlns="http://www.w3.org/2000/svg">
<path d="M26 52C40.3594 52 52 40.3594 52 26C52 11.6406 40.3594 0 26 0C11.6406 0 0 11.6406 0 26C0 40.3594 11.6406 52 26 52Z" fill="#A1C2FF"/>
<path d="M49.3545 37.4335C45.6235 36.478 42.6855 35.126 39.0845 31.434C38.5423 30.8781 37.8015 30.5602 37.0251 30.5505C36.2486 30.5407 35.5 30.8398 34.944 31.382C34.3881 31.9242 34.0702 32.665 34.0605 33.4415C34.0507 34.218 34.3499 34.9666 34.892 35.5225C38.792 39.5005 42.263 41.3725 46.033 42.575C47.3376 40.9971 48.4524 39.2714 49.3545 37.4335V37.4335Z" fill="url(#paint0_linear_2_155)"/>
<path d="M4.00397 30.4265L4.14047 30.524C8.13631 33.4142 12.9307 34.9926 17.862 35.0415C18.2171 35.0548 18.5713 34.9979 18.9044 34.8743C19.2375 34.7506 19.543 34.5625 19.8035 34.3208C20.0639 34.0791 20.2742 33.7884 20.4223 33.4654C20.5704 33.1424 20.6535 32.7934 20.6667 32.4383C20.6799 32.0832 20.6231 31.729 20.4994 31.3959C20.3758 31.0627 20.1877 30.7572 19.946 30.4968C19.7042 30.2363 19.4135 30.0261 19.0906 29.8779C18.7676 29.7298 18.4186 29.6468 18.0635 29.6335C14.1523 29.6246 10.3457 28.3701 7.1955 26.052C6.61388 25.6684 5.90686 25.5234 5.2212 25.6473C4.53555 25.7711 3.92392 26.1542 3.51327 26.7171C3.10262 27.2799 2.92449 27.9793 3.01587 28.67C3.10724 29.3608 3.46109 29.9898 4.00397 30.4265V30.4265Z" fill="url(#paint1_linear_2_155)"/>
<path d="M4.00397 30.4265L4.14047 30.524C8.13631 33.4142 12.9307 34.9926 17.862 35.0415C18.2171 35.0548 18.5713 34.9979 18.9044 34.8743C19.2375 34.7506 19.543 34.5625 19.8035 34.3208C20.0639 34.0791 20.2742 33.7884 20.4223 33.4654C20.5704 33.1424 20.6535 32.7934 20.6667 32.4383C20.6799 32.0832 20.6231 31.729 20.4994 31.3959C20.3758 31.0627 20.1877 30.7572 19.946 30.4968C19.7042 30.2363 19.4135 30.0261 19.0906 29.8779C18.7676 29.7298 18.4186 29.6468 18.0635 29.6335C14.1523 29.6246 10.3457 28.3701 7.1955 26.052C6.61388 25.6684 5.90686 25.5234 5.2212 25.6473C4.53555 25.7711 3.92392 26.1542 3.51327 26.7171C3.10262 27.2799 2.92449 27.9793 3.01587 28.67C3.10724 29.3608 3.46109 29.9898 4.00397 30.4265V30.4265Z" fill="#7196FF"/>
<path d="M18.3625 26.5655L38.935 29.6335L41.392 38.623C41.849 40.2951 41.7276 42.0725 41.0475 43.667C40.5106 44.9307 39.6451 46.0276 38.5409 46.8437C37.4367 47.6599 36.1342 48.1655 34.7685 48.308L22.8995 49.556C21.476 49.7104 20.0396 49.4179 18.7899 48.7191C17.5401 48.0202 16.5388 46.9497 15.925 45.656C15.2881 44.3095 15.1057 42.7926 15.405 41.3335L18.3625 26.5655Z" fill="#7196FF"/>
<path opacity="0.25" d="M40.5015 35.36L26.1755 31.4925L17.8945 28.8795L39.1495 30.42L40.5015 35.36Z" fill="#4F79F0"/>
<path fill-rule="evenodd" clip-rule="evenodd" d="M4.26404 40.3C6.63006 43.9047 9.85543 46.8644 13.6497 48.9125C17.4441 50.9607 21.6882 52.033 26.0001 52.033C30.3118 52.033 34.556 50.9607 38.3503 48.9125C42.1446 46.8644 45.37 43.9047 47.7361 40.3H4.26404Z" fill="#8C7DFF"/>
<path d="M28.8408 13.027C28.5954 12.9589 28.3536 12.8787 28.1163 12.7866C27.7631 12.6498 27.4175 12.4944 27.0811 12.321C25.8128 11.6617 25.3299 10.1014 26.9913 9.49121C26.9913 9.49121 28.4915 8.2848 30.7023 10.3291C30.8754 10.5203 31.1 10.6594 31.3497 10.7299C31.5995 10.8004 31.8641 10.7994 32.1125 10.727L30.0357 12.8308L28.8408 13.027Z" fill="#03A79F"/>
<path d="M30.698 12.1534C30.698 12.1534 28.2178 12.1846 25.9873 7.55119" stroke="#03968F" stroke-width="0.81" stroke-miterlimit="10" stroke-linecap="round"/>
<path d="M28.1164 12.7865C28.0299 12.7711 29.3774 13.2865 30.9981 11.1715C31.223 10.8782 31.5765 10.3973 31.6991 10.2436C32.3463 9.41732 33.8554 7.62753 35.685 8.37526C35.9049 8.4811 36.0985 8.63353 36.2518 8.82155C36.4051 9.00958 36.5143 9.22851 36.5716 9.46257C36.6288 9.69663 36.6326 9.93997 36.5828 10.1751C36.5329 10.4101 36.4306 10.6311 36.2833 10.822C36.027 11.2471 35.6778 11.6103 35.2607 11.8855C34.2395 12.6011 33.0538 13.0576 31.8079 13.2147C30.5621 13.3718 29.2944 13.2248 28.1164 12.7865Z" fill="#00C0B5"/>
<path d="M30.4301 13.2873C32.2876 12.7931 33.8831 11.6259 34.8978 10.019C35.2176 9.49754 35.464 8.93543 35.6303 8.34802L35.688 8.35831C35.8205 8.42434 35.9437 8.50731 36.0544 8.60505C35.8784 9.17452 35.6312 9.71989 35.3184 10.2287C34.5172 11.528 33.341 12.562 31.9388 13.1997C31.4409 13.2823 30.9351 13.3116 30.4301 13.2873V13.2873Z" fill="#03A79F"/>
<path d="M40.3631 17.7476L45.0365 18.0601C45.6562 18.1015 46.2353 18.3835 46.6462 18.844C47.0572 19.3046 47.2665 19.9059 47.228 20.5157L46.9013 25.6895C46.8628 26.2994 46.5797 26.8678 46.1143 27.2697C45.6488 27.6716 45.0392 27.8742 44.4194 27.8327L39.7461 27.5203L40.3631 17.7476Z" fill="#7196FF"/>
<path d="M42.1566 19.6L44.4933 19.7562C44.8032 19.7769 45.0927 19.9179 45.2982 20.1482C45.5037 20.3785 45.6083 20.6791 45.589 20.9841L45.335 25.0081C45.3157 25.313 45.1742 25.5972 44.9414 25.7982C44.7087 25.9992 44.4039 26.1004 44.094 26.0797L41.7574 25.9235L42.1566 19.6Z" fill="#BACFFF"/>
<path d="M17.971 26.0525L13.2977 25.74C12.678 25.6986 12.0989 25.4166 11.6879 24.956C11.2769 24.4955 11.0677 23.8942 11.1062 23.2843L11.4329 18.1106C11.4714 17.5007 11.7545 16.9323 12.2199 16.5304C12.6854 16.1284 13.295 15.9259 13.9147 15.9673L18.5881 16.2798L17.971 26.0525Z" fill="#7196FF"/>
<path d="M16.1769 24.2079L13.8402 24.0517C13.5304 24.0309 13.2408 23.8899 13.0353 23.6597C12.8298 23.4294 12.7252 23.1288 12.7445 22.8238L12.9985 18.7998C13.0178 18.4949 13.1594 18.2107 13.3921 18.0097C13.6248 17.8087 13.9296 17.7075 14.2395 17.7282L16.5762 17.8844L16.1769 24.2079V24.2079Z" fill="#BACFFF"/>
<path d="M19.6064 29.6648L38.1188 30.9025C41.0192 31.0964 43.5165 28.9398 43.6968 26.0856L44.2042 18.049C44.3844 15.1948 42.1792 12.7238 39.2788 12.5298L20.7665 11.2921C17.866 11.0982 15.3687 13.2548 15.1885 16.109L14.681 24.1456C14.5008 26.9998 16.706 29.4708 19.6064 29.6648Z" fill="#7196FF"/>
<path d="M32.6592 26.305L27.2906 25.9461C26.1922 25.8727 25.1658 25.3728 24.4373 24.5565C23.7089 23.7402 23.338 22.6744 23.4062 21.5934L23.6603 17.5694C23.688 17.1303 23.8919 16.721 24.227 16.4316C24.5621 16.1422 25.001 15.9964 25.4472 16.0262L36.0791 16.7371C36.5253 16.7669 36.9422 16.97 37.2382 17.3015C37.5341 17.6331 37.6847 18.0661 37.657 18.5052L37.4243 22.19C37.3505 23.3594 36.8076 24.4494 35.9152 25.2201C35.0227 25.9908 33.8537 26.3791 32.6654 26.2997L32.6592 26.305Z" fill="#BACFFF"/>
<path d="M40.2017 23.1627C41.0613 23.3161 41.8805 22.7552 42.0314 21.9098C42.1823 21.0644 41.6077 20.2547 40.7481 20.1013C39.8884 19.9478 39.0693 20.5088 38.9184 21.3542C38.7675 22.1995 39.342 23.0092 40.2017 23.1627Z" fill="#202225"/>
<path d="M32.8613 23.9353L34.3101 24.0336C34.7118 24.0609 35.058 23.7626 35.0834 23.3673C35.1087 22.972 34.8037 22.6294 34.402 22.6022L32.9532 22.5038C32.5515 22.4765 32.2053 22.7749 32.1799 23.1702C32.1545 23.5654 32.4596 23.908 32.8613 23.9353Z" fill="#9CB6F1"/>
<path d="M27.1374 23.4881L29.1761 23.6244C29.5794 23.6514 29.9266 23.3515 29.9517 22.9546C29.9768 22.5578 29.6701 22.2142 29.2669 22.1872L27.2281 22.0509C26.8248 22.024 26.4776 22.3238 26.4525 22.7207C26.4275 23.1175 26.7341 23.4611 27.1374 23.4881Z" fill="#9CB6F1"/>
<path d="M15.8889 15.1354C15.7198 15.1241 15.8911 15.1279 15.731 15.145C15.5708 15.1624 15.7357 15.1284 15.6123 15.1713C15.4898 15.2143 15.5027 15.1963 15.4375 15.2574C15.3722 15.319 15.4375 15.2574 15.3788 15.4868L15.4581 17.1351L15.6151 18.7615C15.7064 19.5354 15.3819 20.2765 16.6955 20.8852C18.0101 21.4936 17.7354 21.4717 19.6303 21.6178L21.6385 21.8315C22.3334 21.8725 22.9399 21.9258 23.1944 21.9232C23.4668 22.0873 23.3447 21.5806 23.4188 21.2536C23.4808 20.9803 24.0583 19.8603 24.4526 19.3751L25.7492 18.1135C25.9982 17.8512 27.8273 17.5852 28.0924 17.5131C28.3612 17.5289 30.8723 17.6735 31.2057 17.6966C31.5429 17.7199 32.5692 17.777 32.9433 17.7991C33.3641 17.8239 34.2423 18.0603 34.5178 18.1689L36.2173 18.823C36.6722 19.0807 37.3471 22.3585 37.3734 22.538C37.3787 22.5745 37.3816 22.6224 37.3658 22.676C37.3481 22.9981 37.0865 23.4904 37.3228 23.4582C37.4814 23.4366 37.6686 23.4871 37.8838 23.4913C38.7647 23.5587 40.0879 23.5298 40.9252 23.4449C41.7616 23.36 42.5264 23.2008 43.1691 22.9789C43.8109 22.7566 44.3155 22.4761 44.6485 22.1564C44.9806 21.8366 45.1333 21.4849 45.0969 21.1254L44.8718 17.659C44.8644 17.518 44.7276 17.3781 44.4871 17.2667C44.2476 17.1554 43.9225 17.0809 43.5756 17.0577L15.8889 15.1354Z" fill="black"/>
<path d="M41.0074 13.9599L40.5193 13.9222C41.2696 14.166 41.9587 14.557 42.5413 15.0689C43.1239 15.5809 43.5857 16.2017 43.8958 16.8897C44.9873 17.1967 45.973 17.7827 46.7414 18.5814C46.6082 16.9774 45.8646 15.4592 44.647 14.3063C43.4295 13.1534 41.8199 12.4434 40.115 12.3071L19.3117 10.6735L39.4124 12.2635C39.857 12.2979 40.2735 12.4951 40.5718 12.8125C40.8701 13.1298 41.0267 13.542 41.0074 13.9599Z" fill="#7640E7"/>
<path d="M44.3417 19.2303L43.8403 27.0867C44.4051 26.6791 44.9091 26.2027 45.3398 25.6697C45.5342 25.4217 45.7151 25.1643 45.8816 24.8986C45.9493 24.7914 46.0138 24.6799 46.0758 24.5605L46.0858 24.5063L46.1491 24.3796C46.2431 24.193 46.3238 24.0006 46.3913 23.8037C46.6362 23.0188 47.9199 23.4614 47.6757 24.2426C47.5892 24.5226 47.4775 24.7947 47.3418 25.0559C47.0125 25.6777 46.6074 26.2603 46.1346 26.7923C46.7722 26.319 47.2971 25.7255 47.6761 25.0483C48.0552 24.3712 48.2809 23.6248 48.3389 22.8554C48.3968 22.086 48.2859 21.3099 48.0132 20.5751C47.7405 19.8403 47.3116 19.1625 46.753 18.5836C45.9846 17.7848 44.9989 17.1989 43.9073 16.8918C44.2419 17.6334 44.3906 18.4339 44.3417 19.2303V19.2303ZM14.2738 15.0118C14.3259 15.0177 14.3775 15.0272 14.4282 15.0403C14.8865 14.0921 15.6452 13.3048 16.6026 12.784C17.5601 12.2631 18.6708 12.0335 19.7859 12.1258L39.1765 13.6482C39.6396 13.688 40.0971 13.7812 40.5386 13.9258L41.0267 13.9635C41.0467 13.5421 40.8883 13.1265 40.5855 12.8078C40.2829 12.4891 39.861 12.2934 39.4124 12.2635L19.2923 10.67L18.611 10.619C17.0788 10.494 15.5566 10.8405 14.2742 11.6061C12.9918 12.3717 12.0189 13.5149 11.5024 14.863C12.3836 14.5161 13.3447 14.3731 14.3065 14.4458L14.2738 15.0118Z" fill="#7640E7"/>
<path d="M11.5067 20.1993C11.6898 17.2419 12.926 14.9164 14.2603 15.0206L14.293 14.4546C12.7029 14.3229 11.1367 14.7878 9.93701 15.7475C8.73736 16.7073 8.00178 18.0838 7.89128 19.576C7.78078 21.0682 8.30435 22.5545 9.3474 23.7099C10.3905 24.8654 11.8682 25.5958 13.4572 25.7414C12.2039 25.4802 11.3371 23.0619 11.5067 20.1993V20.1993Z" fill="#7640E7"/>
<path d="M47.6923 24.2607C47.9365 23.4795 46.6528 23.0369 46.4079 23.8217C46.3404 24.0187 46.2597 24.2111 46.1658 24.3977L46.1024 24.5244L46.0924 24.5786C46.0318 24.6908 45.9672 24.8023 45.8982 24.9166C45.7317 25.1824 45.5508 25.4398 45.3564 25.6878C44.9258 26.2208 44.4213 26.6971 43.8569 27.1048C42.9966 27.733 42.0178 28.205 40.9684 28.4972C39.4002 28.892 37.7626 29.0141 36.1346 28.8576C36.0456 28.8507 35.9566 28.8604 35.8724 28.886C35.7883 28.9117 35.7107 28.9528 35.6442 29.007C35.5776 29.0612 35.5234 29.1275 35.4845 29.2019C35.4457 29.2765 35.423 29.3578 35.4178 29.4413C35.4126 29.5248 35.425 29.6088 35.4542 29.6886C35.4835 29.7683 35.529 29.8423 35.5882 29.9061C35.6473 29.97 35.7191 30.0226 35.7992 30.0608C35.8794 30.0991 35.9664 30.1223 36.0553 30.1292C38.6074 30.3198 41.211 30.0151 43.4303 28.8731C43.6673 28.7575 43.8972 28.6302 44.1197 28.4918C45.4958 27.6323 46.6052 26.4491 47.3418 25.0559C47.4823 24.8011 47.5993 24.535 47.6923 24.2607V24.2607ZM14.2737 15.0119C12.9395 14.9077 11.7012 17.2441 11.5066 20.1993C11.3234 23.0706 12.1901 25.4889 13.4545 25.7335L13.5781 25.7563C14.9123 25.8605 16.1434 23.5415 16.3317 20.5776C16.514 17.7323 15.6639 15.332 14.4139 15.0527C14.3632 15.0396 14.3116 15.0301 14.2595 15.0242L14.2737 15.0119Z" fill="#7640E7"/>
<path d="M18.528 36.8933C19.6701 36.8933 20.5959 35.9674 20.5959 34.8253C20.5959 33.6832 19.6701 32.7574 18.528 32.7574C17.3859 32.7574 16.4601 33.6832 16.4601 34.8253C16.4601 35.9674 17.3859 36.8933 18.528 36.8933Z" fill="#FFD997"/>
<path d="M30.3449 36.8933C31.487 36.8933 32.4128 35.9674 32.4128 34.8253C32.4128 33.6832 31.487 32.7574 30.3449 32.7574C29.2028 32.7574 28.2769 33.6832 28.2769 34.8253C28.2769 35.9674 29.2028 36.8933 30.3449 36.8933Z" fill="#FFD997"/>
<path d="M22.7931 38.3703C24.751 38.3703 26.3381 36.7831 26.3381 34.8252C26.3381 32.8673 24.751 31.2802 22.7931 31.2802C20.8352 31.2802 19.2481 32.8673 19.2481 34.8252C19.2481 36.7831 20.8352 38.3703 22.7931 38.3703Z" fill="#FFD997"/>
<path d="M26.7073 36.3947C28.7162 36.3947 30.3447 34.7662 30.3447 32.7574C30.3447 30.7485 28.7162 29.12 26.7073 29.12C24.6985 29.12 23.07 30.7485 23.07 32.7574C23.07 34.7662 24.6985 36.3947 26.7073 36.3947Z" fill="#FFD997"/>
<path d="M32.4128 34.8251H15.7586C15.6885 34.8265 15.6196 34.8432 15.5567 34.8741C15.4938 34.9049 15.4384 34.9492 15.3944 35.0037C15.3504 35.0583 15.3189 35.1218 15.302 35.1898C15.2852 35.2578 15.2835 35.3287 15.297 35.3975L17.2911 46.5865C17.3122 46.6991 17.3715 46.8009 17.459 46.8749C17.5464 46.9488 17.6566 46.9904 17.7711 46.9927H30.4003C30.5158 46.9941 30.6279 46.9538 30.7161 46.8792C30.8043 46.8045 30.8626 46.7006 30.8803 46.5865L32.8744 35.3975C32.8879 35.3287 32.8862 35.2578 32.8694 35.1898C32.8525 35.1218 32.821 35.0583 32.777 35.0037C32.733 34.9492 32.6776 34.9049 32.6147 34.8741C32.5518 34.8432 32.4829 34.8265 32.4128 34.8251V34.8251Z" fill="#D8094A"/>
<path d="M30.7696 34.8251H17.4019L19.0451 46.9927H29.1263L30.7696 34.8251Z" fill="white"/>
<path d="M27.0953 34.8251H21.0761L21.8146 46.9927H26.3567L27.0953 34.8251Z" fill="#D8094A"/>
<path d="M73.42 20L68.44 5.9H71.08L74.58 16.3L78.26 5.9H80.16L83.76 16.44L87.36 5.9H89.86L84.84 20H82.72L79.14 9.82L75.54 20H73.42ZM93.1095 20.2C90.7095 20.2 89.5095 18.8533 89.5095 16.16V10.22H92.0095V16.2C92.0095 16.8933 92.1495 17.4067 92.4295 17.74C92.7095 18.0733 93.1562 18.24 93.7695 18.24C94.4362 18.24 94.9829 18.0133 95.4095 17.56C95.8362 17.0933 96.0495 16.48 96.0495 15.72V10.22H98.5495V20H96.1095V18.54C95.4562 19.6467 94.4562 20.2 93.1095 20.2ZM100.192 20V10.22H102.632V11.72C102.925 11.1867 103.332 10.7733 103.852 10.48C104.372 10.1733 104.972 10.02 105.652 10.02C107.118 10.02 108.078 10.66 108.532 11.94C108.838 11.34 109.278 10.8733 109.852 10.54C110.425 10.1933 111.078 10.02 111.812 10.02C114.012 10.02 115.112 11.36 115.112 14.04V20H112.612V14.14C112.612 13.3933 112.485 12.8467 112.232 12.5C111.992 12.1533 111.578 11.98 110.992 11.98C110.338 11.98 109.825 12.2133 109.452 12.68C109.078 13.1333 108.892 13.7667 108.892 14.58V20H106.392V14.14C106.392 13.3933 106.265 12.8467 106.012 12.5C105.772 12.1533 105.365 11.98 104.792 11.98C104.138 11.98 103.625 12.2133 103.252 12.68C102.878 13.1333 102.692 13.7667 102.692 14.58V20H100.192ZM116.691 23.6V10.22H119.131V11.78C119.411 11.2467 119.831 10.82 120.391 10.5C120.964 10.18 121.611 10.02 122.331 10.02C123.184 10.02 123.931 10.2267 124.571 10.64C125.224 11.0533 125.731 11.64 126.091 12.4C126.451 13.1467 126.631 14.0467 126.631 15.1C126.631 16.14 126.451 17.0467 126.091 17.82C125.731 18.58 125.231 19.1667 124.591 19.58C123.951 19.9933 123.197 20.2 122.331 20.2C121.637 20.2 121.011 20.0533 120.451 19.76C119.904 19.4533 119.484 19.0467 119.191 18.54V23.6H116.691ZM121.631 18.3C122.377 18.3 122.977 18.0333 123.431 17.5C123.884 16.9533 124.111 16.1533 124.111 15.1C124.111 14.0333 123.884 13.24 123.431 12.72C122.977 12.1867 122.377 11.92 121.631 11.92C120.884 11.92 120.284 12.1867 119.831 12.72C119.377 13.24 119.151 14.0333 119.151 15.1C119.151 16.1533 119.377 16.9533 119.831 17.5C120.284 18.0333 120.884 18.3 121.631 18.3ZM131.223 20.2C128.823 20.2 127.623 18.8533 127.623 16.16V10.22H130.123V16.2C130.123 16.8933 130.263 17.4067 130.543 17.74C130.823 18.0733 131.269 18.24 131.883 18.24C132.549 18.24 133.096 18.0133 133.523 17.56C133.949 17.0933 134.163 16.48 134.163 15.72V10.22H136.663V20H134.223V18.54C133.569 19.6467 132.569 20.2 131.223 20.2ZM141.845 20.2C141.018 20.2 140.245 20.1 139.525 19.9C138.805 19.7 138.205 19.4133 137.725 19.04L138.365 17.4C138.858 17.7333 139.412 17.9933 140.025 18.18C140.638 18.3533 141.252 18.44 141.865 18.44C142.505 18.44 142.978 18.3333 143.285 18.12C143.605 17.8933 143.765 17.6 143.765 17.24C143.765 16.68 143.352 16.32 142.525 16.16L140.525 15.78C138.832 15.46 137.985 14.58 137.985 13.14C137.985 12.5 138.158 11.9467 138.505 11.48C138.865 11.0133 139.358 10.6533 139.985 10.4C140.612 10.1467 141.332 10.02 142.145 10.02C142.838 10.02 143.505 10.12 144.145 10.32C144.785 10.5067 145.332 10.7933 145.785 11.18L145.105 12.82C144.718 12.5 144.252 12.2467 143.705 12.06C143.172 11.8733 142.658 11.78 142.165 11.78C141.512 11.78 141.025 11.8933 140.705 12.12C140.398 12.3467 140.245 12.6467 140.245 13.02C140.245 13.6067 140.625 13.9667 141.385 14.1L143.385 14.48C144.252 14.64 144.905 14.9333 145.345 15.36C145.798 15.7867 146.025 16.36 146.025 17.08C146.025 18.0533 145.645 18.82 144.885 19.38C144.125 19.9267 143.112 20.2 141.845 20.2Z" fill="#348FCD"/>
<path d="M78.54 47V43.98H72.04V42.74L78.82 32.9H80.2V42.58H82.3V43.98H80.2V47H78.54ZM78.54 42.58V35.6L73.74 42.58H78.54ZM87.9922 47.18C86.4055 47.18 85.1722 46.84 84.2922 46.16C83.4122 45.4667 82.9722 44.5 82.9722 43.26C82.9722 42.3933 83.2055 41.6533 83.6722 41.04C84.1522 40.4267 84.7855 40.0067 85.5722 39.78C84.8655 39.5133 84.3122 39.0867 83.9122 38.5C83.5122 37.9133 83.3122 37.24 83.3122 36.48C83.3122 35.2933 83.7322 34.3733 84.5722 33.72C85.4255 33.0533 86.5655 32.72 87.9922 32.72C89.4189 32.72 90.5589 33.0533 91.4122 33.72C92.2655 34.3733 92.6922 35.2933 92.6922 36.48C92.6922 37.24 92.4855 37.92 92.0722 38.52C91.6722 39.1067 91.1255 39.5267 90.4322 39.78C91.2189 40.0067 91.8455 40.4267 92.3122 41.04C92.7789 41.6533 93.0122 42.3933 93.0122 43.26C93.0122 44.5 92.5722 45.4667 91.6922 46.16C90.8122 46.84 89.5789 47.18 87.9922 47.18ZM87.9922 39.18C88.9655 39.18 89.7255 38.9533 90.2722 38.5C90.8322 38.0333 91.1122 37.4067 91.1122 36.62C91.1122 35.82 90.8322 35.2 90.2722 34.76C89.7255 34.3067 88.9655 34.08 87.9922 34.08C87.0189 34.08 86.2589 34.3067 85.7122 34.76C85.1655 35.2 84.8922 35.82 84.8922 36.62C84.8922 37.4067 85.1655 38.0333 85.7122 38.5C86.2589 38.9533 87.0189 39.18 87.9922 39.18ZM87.9922 45.82C90.2855 45.82 91.4322 44.9333 91.4322 43.16C91.4322 41.4133 90.2855 40.54 87.9922 40.54C85.6989 40.54 84.5522 41.4133 84.5522 43.16C84.5522 44.9333 85.6989 45.82 87.9922 45.82ZM98.9844 47.18C97.3977 47.18 96.1644 46.84 95.2844 46.16C94.4044 45.4667 93.9644 44.5 93.9644 43.26C93.9644 42.3933 94.1977 41.6533 94.6644 41.04C95.1444 40.4267 95.7777 40.0067 96.5644 39.78C95.8577 39.5133 95.3044 39.0867 94.9044 38.5C94.5044 37.9133 94.3044 37.24 94.3044 36.48C94.3044 35.2933 94.7244 34.3733 95.5644 33.72C96.4177 33.0533 97.5577 32.72 98.9844 32.72C100.411 32.72 101.551 33.0533 102.404 33.72C103.258 34.3733 103.684 35.2933 103.684 36.48C103.684 37.24 103.478 37.92 103.064 38.52C102.664 39.1067 102.118 39.5267 101.424 39.78C102.211 40.0067 102.838 40.4267 103.304 41.04C103.771 41.6533 104.004 42.3933 104.004 43.26C104.004 44.5 103.564 45.4667 102.684 46.16C101.804 46.84 100.571 47.18 98.9844 47.18ZM98.9844 39.18C99.9577 39.18 100.718 38.9533 101.264 38.5C101.824 38.0333 102.104 37.4067 102.104 36.62C102.104 35.82 101.824 35.2 101.264 34.76C100.718 34.3067 99.9577 34.08 98.9844 34.08C98.011 34.08 97.251 34.3067 96.7044 34.76C96.1577 35.2 95.8844 35.82 95.8844 36.62C95.8844 37.4067 96.1577 38.0333 96.7044 38.5C97.251 38.9533 98.011 39.18 98.9844 39.18ZM98.9844 45.82C101.278 45.82 102.424 44.9333 102.424 43.16C102.424 41.4133 101.278 40.54 98.9844 40.54C96.691 40.54 95.5444 41.4133 95.5444 43.16C95.5444 44.9333 96.691 45.82 98.9844 45.82ZM111.517 47V43.98H105.017V42.74L111.797 32.9H113.177V42.58H115.277V43.98H113.177V47H111.517ZM111.517 42.58V35.6L106.717 42.58H111.517ZM120.845 47V32.9H126.425C127.945 32.9 129.105 33.2667 129.905 34C130.719 34.7333 131.125 35.78 131.125 37.14C131.125 38.4867 130.719 39.5333 129.905 40.28C129.105 41.0133 127.945 41.38 126.425 41.38H122.485V47H120.845ZM122.485 40H126.225C128.412 40 129.505 39.0467 129.505 37.14C129.505 35.22 128.412 34.26 126.225 34.26H122.485V40ZM134.853 47.18C134.187 47.18 133.587 47.0533 133.053 46.8C132.533 46.5333 132.12 46.1733 131.813 45.72C131.507 45.2667 131.353 44.76 131.353 44.2C131.353 43.4933 131.533 42.9333 131.893 42.52C132.267 42.1067 132.873 41.8133 133.713 41.64C134.567 41.4533 135.727 41.36 137.193 41.36H137.833V40.74C137.833 39.9133 137.66 39.32 137.313 38.96C136.98 38.5867 136.44 38.4 135.693 38.4C135.107 38.4 134.54 38.4867 133.993 38.66C133.447 38.82 132.887 39.0867 132.313 39.46L131.753 38.28C132.26 37.92 132.873 37.6333 133.593 37.42C134.327 37.2067 135.027 37.1 135.693 37.1C136.947 37.1 137.873 37.4067 138.473 38.02C139.087 38.6333 139.393 39.5867 139.393 40.88V47H137.873V45.32C137.62 45.8933 137.227 46.3467 136.693 46.68C136.173 47.0133 135.56 47.18 134.853 47.18ZM135.113 45.96C135.913 45.96 136.567 45.6867 137.073 45.14C137.58 44.58 137.833 43.8733 137.833 43.02V42.42H137.213C136.133 42.42 135.28 42.4733 134.653 42.58C134.04 42.6733 133.607 42.8467 133.353 43.1C133.113 43.34 132.993 43.6733 132.993 44.1C132.993 44.6467 133.18 45.0933 133.553 45.44C133.94 45.7867 134.46 45.96 135.113 45.96ZM144.379 47.18C143.392 47.18 142.646 46.8933 142.139 46.32C141.646 45.7333 141.399 44.8867 141.399 43.78V32.9H143.019V43.66C143.019 45.0867 143.586 45.8 144.719 45.8C145.052 45.8 145.352 45.76 145.619 45.68L145.579 47.04C145.166 47.1333 144.766 47.18 144.379 47.18ZM146.117 34.86V33.04H148.117V34.86H146.117ZM146.317 47V37.28H147.937V47H146.317ZM149.965 47V37.28H151.545V38.94C151.865 38.3267 152.319 37.8667 152.905 37.56C153.492 37.2533 154.152 37.1 154.885 37.1C157.192 37.1 158.345 38.38 158.345 40.94V47H156.725V41.04C156.725 40.1333 156.545 39.4733 156.185 39.06C155.839 38.6333 155.279 38.42 154.505 38.42C153.612 38.42 152.899 38.7 152.365 39.26C151.845 39.8067 151.585 40.54 151.585 41.46V47H149.965ZM164.033 47.18C163.166 47.18 162.406 46.9733 161.752 46.56C161.113 46.1467 160.613 45.5667 160.253 44.82C159.906 44.06 159.733 43.1667 159.733 42.14C159.733 41.1 159.906 40.2067 160.253 39.46C160.613 38.7 161.113 38.12 161.752 37.72C162.406 37.3067 163.166 37.1 164.033 37.1C164.793 37.1 165.459 37.2667 166.033 37.6C166.619 37.9333 167.053 38.3933 167.333 38.98V32.9H168.953V47H167.373V45.22C167.093 45.8333 166.659 46.3133 166.073 46.66C165.486 47.0067 164.806 47.18 164.033 47.18ZM164.373 45.88C165.279 45.88 166.006 45.56 166.553 44.92C167.099 44.2667 167.373 43.34 167.373 42.14C167.373 40.9267 167.099 40 166.553 39.36C166.006 38.72 165.279 38.4 164.373 38.4C163.453 38.4 162.719 38.72 162.173 39.36C161.639 40 161.373 40.9267 161.373 42.14C161.373 43.34 161.639 44.2667 162.173 44.92C162.719 45.56 163.453 45.88 164.373 45.88ZM170.993 47V37.28H172.573V39.02C173.093 37.8467 174.159 37.2 175.773 37.08L176.353 37.02L176.473 38.42L175.453 38.54C174.533 38.62 173.833 38.9133 173.353 39.42C172.873 39.9133 172.633 40.5933 172.633 41.46V47H170.993ZM181.083 47.18C180.137 47.18 179.317 46.9733 178.623 46.56C177.93 46.1467 177.39 45.5667 177.003 44.82C176.63 44.06 176.443 43.1667 176.443 42.14C176.443 41.1133 176.63 40.2267 177.003 39.48C177.39 38.72 177.93 38.1333 178.623 37.72C179.317 37.3067 180.137 37.1 181.083 37.1C182.017 37.1 182.83 37.3067 183.523 37.72C184.23 38.1333 184.77 38.72 185.143 39.48C185.53 40.2267 185.723 41.1133 185.723 42.14C185.723 43.1667 185.53 44.06 185.143 44.82C184.77 45.5667 184.23 46.1467 183.523 46.56C182.83 46.9733 182.017 47.18 181.083 47.18ZM181.083 45.88C181.99 45.88 182.717 45.56 183.263 44.92C183.81 44.2667 184.083 43.34 184.083 42.14C184.083 40.9267 183.81 40 183.263 39.36C182.717 38.72 181.99 38.4 181.083 38.4C180.163 38.4 179.43 38.72 178.883 39.36C178.35 40 178.083 40.9267 178.083 42.14C178.083 43.34 178.35 44.2667 178.883 44.92C179.43 45.56 180.163 45.88 181.083 45.88ZM187.197 47V37.28H188.777V38.92C189.07 38.3333 189.477 37.8867 189.997 37.58C190.517 37.26 191.123 37.1 191.817 37.1C193.337 37.1 194.31 37.76 194.737 39.08C195.03 38.4667 195.463 37.9867 196.037 37.64C196.61 37.28 197.27 37.1 198.017 37.1C200.177 37.1 201.257 38.38 201.257 40.94V47H199.637V41.02C199.637 40.1267 199.477 39.4733 199.157 39.06C198.85 38.6333 198.337 38.42 197.617 38.42C196.83 38.42 196.203 38.7 195.737 39.26C195.27 39.82 195.037 40.5667 195.037 41.5V47H193.417V41.02C193.417 40.1267 193.257 39.4733 192.937 39.06C192.63 38.6333 192.117 38.42 191.397 38.42C190.597 38.42 189.963 38.7 189.497 39.26C189.043 39.82 188.817 40.5667 188.817 41.5V47H187.197ZM207.666 47.18C206.132 47.18 204.919 46.7333 204.026 45.84C203.132 44.9333 202.686 43.7067 202.686 42.16C202.686 41.16 202.886 40.28 203.286 39.52C203.686 38.7467 204.232 38.1533 204.926 37.74C205.632 37.3133 206.446 37.1 207.366 37.1C208.686 37.1 209.719 37.5267 210.466 38.38C211.212 39.22 211.586 40.38 211.586 41.86V42.48H204.266C204.319 43.5867 204.639 44.4333 205.226 45.02C205.812 45.5933 206.626 45.88 207.666 45.88C208.252 45.88 208.812 45.7933 209.346 45.62C209.879 45.4333 210.386 45.1333 210.866 44.72L211.426 45.86C210.986 46.2733 210.426 46.6 209.746 46.84C209.066 47.0667 208.372 47.18 207.666 47.18ZM207.406 38.3C206.486 38.3 205.759 38.5867 205.226 39.16C204.692 39.7333 204.379 40.4867 204.286 41.42H210.186C210.146 40.4333 209.886 39.6667 209.406 39.12C208.939 38.5733 208.272 38.3 207.406 38.3ZM217.327 43.32L216.827 32.9H218.827L218.327 43.32H217.327ZM216.807 47V44.96H218.847V47H216.807ZM220.878 43.32L220.378 32.9H222.378L221.878 43.32H220.878ZM220.358 47V44.96H222.398V47H220.358Z" fill="white"/>
<defs>
<linearGradient id="paint0_linear_2_155" x1="34.0665" y1="36.5625" x2="49.3545" y2="36.5625" gradientUnits="userSpaceOnUse">
<stop stop-color="#7196FF"/>
<stop offset="1" stop-color="#567EF7"/>
</linearGradient>
<linearGradient id="paint1_linear_2_155" x1="2216.19" y1="393.122" x2="2628.93" y2="262.59" gradientUnits="userSpaceOnUse">
<stop stop-color="#7196FF"/>
<stop offset="1" stop-color="#567EF7"/>
</linearGradient>
</defs>
</svg>
