<svg width="200" height="200" viewBox="0 0 200 200" fill="none" xmlns="http://www.w3.org/2000/svg">
<circle cx="100" cy="100" r="100" fill="#912733"/>
<path d="M195 100C195 152.467 152.467 195 100 195C47.5329 195 5 152.467 5 100C5 47.5329 47.5329 5 100 5C152.467 5 195 47.5329 195 100ZM7.06757 100C7.06757 151.325 48.6748 192.932 100 192.932C151.325 192.932 192.932 151.325 192.932 100C192.932 48.6748 151.325 7.06757 100 7.06757C48.6748 7.06757 7.06757 48.6748 7.06757 100Z" fill="#D9D9D9"/>
<path d="M180 100C180 144.183 144.183 180 100 180C55.8172 180 20 144.183 20 100C20 55.8172 55.8172 20 100 20C144.183 20 180 55.8172 180 100ZM21.7411 100C21.7411 143.221 56.7788 178.259 100 178.259C143.221 178.259 178.259 143.221 178.259 100C178.259 56.7788 143.221 21.7411 100 21.7411C56.7788 21.7411 21.7411 56.7788 21.7411 100Z" fill="#D9D9D9"/>
<rect x="16" y="57" width="168" height="1" fill="#D9D9D9"/>
<rect x="16" y="141" width="168" height="1" fill="#D9D9D9"/>
<rect x="18" y="58" width="162" height="83" fill="#912733"/>
<path d="M20.7 81V63.25H24.8V77.4H33.4V81H20.7ZM35.324 81V63.25H39.424V81H35.324ZM50.5941 81.125C49.2608 81.125 48.0525 80.875 46.9691 80.375C45.9025 79.875 44.9775 79.2 44.1941 78.35C43.4275 77.4833 42.8358 76.5167 42.4191 75.45C42.0025 74.3667 41.7941 73.25 41.7941 72.1C41.7941 70.9167 42.0108 69.7917 42.4441 68.725C42.8941 67.6417 43.5108 66.6833 44.2941 65.85C45.0941 65.0167 46.0358 64.3583 47.1191 63.875C48.2025 63.375 49.3858 63.125 50.6691 63.125C51.9858 63.125 53.1775 63.3833 54.2441 63.9C55.3275 64.4167 56.2525 65.1083 57.0191 65.975C57.8025 66.8417 58.4025 67.8167 58.8191 68.9C59.2358 69.9667 59.4441 71.0583 59.4441 72.175C59.4441 73.3583 59.2275 74.4833 58.7941 75.55C58.3608 76.6167 57.7441 77.575 56.9441 78.425C56.1441 79.2583 55.2025 79.9167 54.1191 80.4C53.0525 80.8833 51.8775 81.125 50.5941 81.125ZM50.6191 77.475C51.4025 77.475 52.0858 77.325 52.6691 77.025C53.2525 76.7083 53.7358 76.3 54.1191 75.8C54.5025 75.2833 54.7858 74.7083 54.9691 74.075C55.1691 73.425 55.2691 72.7667 55.2691 72.1C55.2691 71.4167 55.1691 70.7583 54.9691 70.125C54.7691 69.475 54.4691 68.9 54.0691 68.4C53.6691 67.9 53.1775 67.5083 52.5941 67.225C52.0108 66.925 51.3525 66.775 50.6191 66.775C49.8358 66.775 49.1525 66.9333 48.5691 67.25C48.0025 67.55 47.5191 67.9583 47.1191 68.475C46.7358 68.975 46.4441 69.55 46.2441 70.2C46.0608 70.8333 45.9691 71.4833 45.9691 72.15C45.9691 72.8333 46.0691 73.4917 46.2691 74.125C46.4691 74.7583 46.7608 75.3333 47.1441 75.85C47.5441 76.35 48.0358 76.75 48.6191 77.05C49.2025 77.3333 49.8691 77.475 50.6191 77.475ZM49.5191 74H53.3691L59.6941 81H55.8441L49.5191 74ZM69.4139 81.15C67.9972 81.15 66.7889 80.9167 65.7889 80.45C64.7889 79.9667 63.9722 79.3167 63.3389 78.5C62.7222 77.6667 62.2639 76.725 61.9639 75.675C61.6805 74.6083 61.5389 73.4917 61.5389 72.325V63.25H65.6389V72.325C65.6389 72.9917 65.7055 73.6417 65.8389 74.275C65.9722 74.8917 66.1889 75.4417 66.4889 75.925C66.7889 76.4083 67.1722 76.7917 67.6389 77.075C68.1222 77.3583 68.7139 77.5 69.4139 77.5C70.1305 77.5 70.7305 77.3583 71.2139 77.075C71.6972 76.775 72.0805 76.3833 72.3639 75.9C72.6472 75.4 72.8555 74.8417 72.9889 74.225C73.1222 73.6083 73.1889 72.975 73.1889 72.325V63.25H77.2889V72.325C77.2889 73.5583 77.1305 74.7083 76.8139 75.775C76.5139 76.8417 76.0472 77.7833 75.4139 78.6C74.7805 79.4 73.9639 80.025 72.9639 80.475C71.9805 80.925 70.7972 81.15 69.4139 81.15ZM80.4656 81V63.25H84.5656V81H80.4656ZM87.9607 81V63.25H94.5857C96.5357 63.25 98.1607 63.65 99.4607 64.45C100.777 65.2333 101.769 66.3 102.436 67.65C103.102 68.9833 103.436 70.4667 103.436 72.1C103.436 73.9 103.069 75.4667 102.336 76.8C101.602 78.1333 100.569 79.1667 99.2357 79.9C97.9191 80.6333 96.3691 81 94.5857 81H87.9607ZM99.2607 72.1C99.2607 71.0667 99.0774 70.1583 98.7107 69.375C98.3441 68.575 97.8107 67.9583 97.1107 67.525C96.4107 67.075 95.5691 66.85 94.5857 66.85H92.0607V77.4H94.5857C95.5857 77.4 96.4274 77.175 97.1107 76.725C97.8107 76.2583 98.3441 75.625 98.7107 74.825C99.0774 74.0083 99.2607 73.1 99.2607 72.1ZM109.623 63.25H114.048L120.148 81H115.948L114.573 77.025H109.048L107.698 81H103.498L109.623 63.25ZM113.898 74.2L111.823 67.375L109.698 74.2H113.898ZM133.786 66.85H128.386V81H124.286V66.85H118.861V63.25H133.786V66.85ZM135.788 81V63.25H139.888V81H135.788ZM151.058 81.15C149.725 81.15 148.516 80.9 147.433 80.4C146.366 79.8833 145.441 79.2 144.658 78.35C143.891 77.4833 143.3 76.5167 142.883 75.45C142.466 74.3667 142.258 73.25 142.258 72.1C142.258 70.9167 142.475 69.7917 142.908 68.725C143.358 67.6583 143.975 66.7083 144.758 65.875C145.558 65.025 146.5 64.3583 147.583 63.875C148.666 63.3917 149.85 63.15 151.133 63.15C152.45 63.15 153.641 63.4083 154.708 63.925C155.791 64.425 156.716 65.1083 157.483 65.975C158.266 66.8417 158.866 67.8167 159.283 68.9C159.7 69.9667 159.908 71.0583 159.908 72.175C159.908 73.3583 159.691 74.4833 159.258 75.55C158.825 76.6167 158.208 77.575 157.408 78.425C156.608 79.2583 155.666 79.925 154.583 80.425C153.516 80.9083 152.341 81.15 151.058 81.15ZM146.433 72.15C146.433 72.8333 146.533 73.5 146.733 74.15C146.933 74.7833 147.225 75.35 147.608 75.85C148.008 76.35 148.5 76.75 149.083 77.05C149.666 77.35 150.333 77.5 151.083 77.5C151.866 77.5 152.55 77.35 153.133 77.05C153.716 76.7333 154.2 76.3167 154.583 75.8C154.966 75.2833 155.25 74.7083 155.433 74.075C155.633 73.425 155.733 72.7667 155.733 72.1C155.733 71.4167 155.633 70.7583 155.433 70.125C155.233 69.4917 154.933 68.925 154.533 68.425C154.133 67.9083 153.641 67.5083 153.058 67.225C152.475 66.9417 151.816 66.8 151.083 66.8C150.3 66.8 149.616 66.95 149.033 67.25C148.466 67.55 147.983 67.9583 147.583 68.475C147.2 68.975 146.908 69.55 146.708 70.2C146.525 70.8333 146.433 71.4833 146.433 72.15ZM166.377 70.85V81H162.277V63.25H165.527L173.752 73.7V63.25H177.852V81H174.502L166.377 70.85Z" fill="white"/>
<path d="M66.144 131V110.696L58.8 125.48H54.48L47.136 110.696V131H39.264V96.92H47.808L56.64 114.728L65.52 96.92H74.016V131H66.144ZM83.8729 96.92H92.3689L104.081 131H96.0169L93.3769 123.368H82.7689L80.1769 131H72.1129L83.8729 96.92ZM92.0809 117.944L88.0969 104.84L84.0169 117.944H92.0809ZM102.157 131V96.92H117.517C119.117 96.92 120.589 97.256 121.933 97.928C123.309 98.568 124.493 99.448 125.485 100.568C126.477 101.656 127.245 102.888 127.789 104.264C128.365 105.64 128.653 107.032 128.653 108.44C128.653 109.848 128.429 111.192 127.981 112.472C127.533 113.72 126.893 114.856 126.061 115.88C125.229 116.872 124.237 117.688 123.085 118.328L130.573 131H121.885L115.357 120.008H110.029V131H102.157ZM110.029 113.144H117.229C117.869 113.144 118.429 112.952 118.909 112.568C119.421 112.152 119.837 111.592 120.157 110.888C120.477 110.184 120.637 109.368 120.637 108.44C120.637 107.512 120.445 106.712 120.061 106.04C119.709 105.336 119.261 104.792 118.717 104.408C118.173 104.024 117.597 103.832 116.989 103.832H110.029V113.144ZM129.033 131V96.92H136.905V131H129.033ZM162.096 124.088V131H138.144V96.92H161.664V103.832H146.016V110.456H159.456V116.84H146.016V124.088H162.096Z" fill="white"/>
<path d="M64.0979 145.854C64.6966 144.011 67.3034 144.011 67.9021 145.854L68.6942 148.292C68.9619 149.116 69.7298 149.674 70.5963 149.674H73.1594C75.0969 149.674 75.9024 152.153 74.335 153.292L72.2614 154.798C71.5604 155.308 71.2671 156.21 71.5348 157.034L72.3269 159.472C72.9256 161.315 70.8166 162.847 69.2492 161.708L67.1756 160.202C66.4746 159.692 65.5254 159.692 64.8244 160.202L62.7508 161.708C61.1834 162.847 59.0744 161.315 59.6731 159.472L60.4652 157.034C60.7329 156.21 60.4396 155.308 59.7386 154.798L57.665 153.292C56.0976 152.153 56.9031 149.674 58.8406 149.674H61.4037C62.2702 149.674 63.0381 149.116 63.3058 148.292L64.0979 145.854Z" fill="#D9D9D9"/>
<path d="M97.5979 150.854C98.1966 149.011 100.803 149.011 101.402 150.854L102.755 155.019C103.023 155.843 103.791 156.401 104.658 156.401H109.037C110.975 156.401 111.78 158.88 110.213 160.019L106.67 162.593C105.969 163.103 105.675 164.005 105.943 164.83L107.296 168.995C107.895 170.837 105.786 172.37 104.219 171.231L100.676 168.657C99.9746 168.147 99.0254 168.147 98.3244 168.657L94.7813 171.231C93.2139 172.37 91.105 170.837 91.7037 168.995L93.057 164.83C93.3247 164.005 93.0314 163.103 92.3305 162.593L88.7874 160.019C87.2199 158.88 88.0255 156.401 89.9629 156.401H94.3424C95.2089 156.401 95.9768 155.843 96.2445 155.019L97.5979 150.854Z" fill="#D9D9D9"/>
<path d="M131.098 144.854C131.697 143.011 134.303 143.011 134.902 144.854L135.694 147.292C135.962 148.116 136.73 148.674 137.596 148.674H140.159C142.097 148.674 142.902 151.153 141.335 152.292L139.261 153.798C138.56 154.308 138.267 155.21 138.535 156.034L139.327 158.472C139.926 160.315 137.817 161.847 136.249 160.708L134.176 159.202C133.475 158.692 132.525 158.692 131.824 159.202L129.751 160.708C128.183 161.847 126.074 160.315 126.673 158.472L127.465 156.034C127.733 155.21 127.44 154.308 126.739 153.798L124.665 152.292C123.098 151.153 123.903 148.674 125.841 148.674H128.404C129.27 148.674 130.038 148.116 130.306 147.292L131.098 144.854Z" fill="#D9D9D9"/>
</svg>
